<svg xmlns="http://www.w3.org/2000/svg" xmlns:xlink="http://www.w3.org/1999/xlink" width="500" zoomAndPan="magnify" viewBox="0 0 375 374.999991" height="500" preserveAspectRatio="xMidYMid meet" version="1.0"><defs><g/><clipPath id="7bb01bae94"><path d="M 141.363281 98.707031 L 233.605469 98.707031 L 233.605469 203.707031 L 141.363281 203.707031 Z M 141.363281 98.707031 " clip-rule="nonzero"/></clipPath></defs><rect x="-37.5" width="450" fill="#ffffff" y="-37.499999" height="449.999989" fill-opacity="1"/><rect x="-37.5" width="450" fill="#ffffff" y="-37.499999" height="449.999989" fill-opacity="1"/><rect x="-37.5" width="450" fill="#0a1c40" y="-37.499999" height="449.999989" fill-opacity="1"/><g clip-path="url(#7bb01bae94)"><path fill="#ffffff" d="M 182.765625 110.984375 L 182.765625 112.917969 L 170.191406 112.917969 L 165.90625 108.300781 L 163.515625 105.730469 L 153.074219 105.730469 C 152.476562 104.421875 151.175781 103.523438 149.65625 103.523438 C 147.582031 103.523438 145.886719 105.214844 145.886719 107.308594 C 145.886719 109.394531 147.582031 111.082031 149.65625 111.082031 C 151.175781 111.082031 152.476562 110.183594 153.074219 108.886719 L 162.148438 108.886719 L 165.890625 112.917969 L 168.824219 116.078125 L 182.765625 116.078125 L 182.765625 124.953125 L 162.21875 124.953125 C 161.621094 123.660156 160.320312 122.761719 158.800781 122.761719 C 156.722656 122.761719 155.027344 124.449219 155.027344 126.53125 C 155.027344 128.613281 156.722656 130.316406 158.800781 130.316406 C 160.320312 130.316406 161.621094 129.402344 162.21875 128.113281 L 182.765625 128.113281 L 182.765625 134.566406 L 164.277344 134.566406 L 161.347656 137.726562 L 157.605469 141.769531 L 148.527344 141.769531 C 147.933594 140.460938 146.632812 139.5625 145.113281 139.5625 C 143.039062 139.566406 141.355469 141.253906 141.355469 143.351562 C 141.355469 145.433594 143.039062 147.121094 145.113281 147.121094 C 146.632812 147.121094 147.933594 146.222656 148.527344 144.929688 L 158.976562 144.929688 L 161.363281 142.339844 L 165.648438 137.726562 L 182.765625 137.726562 L 182.765625 150.414062 L 173.554688 150.414062 C 172.957031 149.121094 171.65625 148.222656 170.136719 148.222656 C 168.058594 148.222656 166.378906 149.910156 166.378906 151.992188 C 166.378906 154.089844 168.0625 155.777344 170.136719 155.777344 C 171.65625 155.777344 172.957031 154.878906 173.554688 153.574219 L 182.765625 153.574219 L 182.765625 172.078125 L 175.601562 172.078125 L 168.929688 164.886719 L 163.300781 164.886719 C 162.703125 163.59375 161.402344 162.683594 159.882812 162.683594 C 157.804688 162.683594 156.125 164.382812 156.125 166.46875 C 156.125 168.550781 157.808594 170.238281 159.882812 170.238281 C 161.402344 170.238281 162.703125 169.339844 163.300781 168.046875 L 167.558594 168.046875 L 174.230469 175.234375 L 182.761719 175.234375 L 182.761719 182.886719 L 177.769531 182.886719 L 171.097656 190.078125 L 153.722656 190.078125 C 153.128906 188.785156 151.824219 187.882812 150.304688 187.882812 C 148.230469 187.882812 146.550781 189.574219 146.550781 191.65625 C 146.550781 193.75 148.230469 195.441406 150.304688 195.441406 C 151.824219 195.441406 153.128906 194.542969 153.722656 193.234375 L 172.46875 193.234375 L 179.140625 186.046875 L 182.761719 186.046875 L 182.761719 196.242188 L 185.90625 199.769531 L 186.574219 200.503906 L 189.394531 203.664062 L 204.636719 203.664062 L 207.460938 200.503906 L 212.453125 194.921875 L 215.597656 191.410156 L 215.597656 186.6875 L 216.617188 185.542969 L 223.074219 178.324219 L 226.21875 174.8125 L 226.21875 164.972656 L 230.449219 160.261719 L 233.597656 156.734375 L 233.597656 143.285156 L 230.449219 139.769531 L 223.789062 132.324219 L 223.789062 124.304688 L 220.644531 120.773438 L 214.539062 113.953125 L 212.125 111.269531 L 212.125 106.53125 L 208.980469 103.019531 L 207.988281 101.902344 L 205.171875 98.746094 L 189.480469 98.746094 L 186.660156 101.902344 L 185.914062 102.734375 L 182.765625 106.261719 Z M 194.484375 188.894531 C 192.394531 188.894531 190.710938 187.207031 190.710938 185.109375 C 190.710938 184.566406 190.820312 184.0625 191.023438 183.597656 L 185.910156 177.894531 L 185.910156 195.035156 L 190.804688 200.507812 L 203.242188 200.507812 L 212.453125 190.199219 L 212.453125 187.886719 L 208.003906 182.90625 L 204.859375 179.390625 L 204.859375 170.773438 C 203.558594 170.175781 202.648438 168.851562 202.648438 167.328125 C 202.648438 165.230469 204.34375 163.53125 206.429688 163.53125 C 208.507812 163.53125 210.203125 165.230469 210.203125 167.328125 C 210.203125 168.851562 209.292969 170.171875 208.003906 170.773438 L 208.003906 178.179688 L 213.484375 184.320312 L 215.601562 181.953125 L 223.074219 173.605469 L 223.074219 166.183594 L 217.078125 159.484375 L 206.351562 159.484375 C 205.753906 160.792969 204.4375 161.691406 202.917969 161.691406 C 200.828125 161.691406 199.132812 160.003906 199.132812 157.90625 C 199.132812 155.808594 200.828125 154.105469 202.917969 154.105469 C 204.4375 154.105469 205.753906 155.019531 206.351562 156.328125 L 218.492188 156.328125 L 221.3125 159.484375 L 224.109375 162.617188 L 226.222656 160.246094 L 230.453125 155.523438 L 230.453125 144.496094 L 223.792969 137.046875 L 222.765625 135.886719 L 216.714844 142.65625 C 216.90625 143.121094 217.027344 143.636719 217.027344 144.167969 C 217.027344 146.261719 215.332031 147.964844 213.242188 147.964844 C 211.152344 147.964844 209.472656 146.261719 209.472656 144.167969 C 209.472656 142.070312 211.152344 140.382812 213.242188 140.382812 C 213.636719 140.382812 214.015625 140.4375 214.367188 140.546875 L 220.648438 133.53125 L 220.648438 125.511719 L 212.128906 115.996094 L 211.097656 114.839844 L 203.953125 122.84375 L 203.953125 142.75 L 200.804688 146.261719 L 199.585938 147.625 C 199.777344 148.089844 199.898438 148.605469 199.898438 149.136719 C 199.898438 151.234375 198.203125 152.933594 196.113281 152.933594 C 194.023438 152.933594 192.34375 151.234375 192.34375 149.136719 C 192.34375 147.039062 194.023438 145.351562 196.113281 145.351562 C 196.507812 145.351562 196.886719 145.40625 197.238281 145.515625 L 200.804688 141.539062 L 200.804688 121.632812 L 203.953125 118.105469 L 208.984375 112.46875 L 208.984375 107.746094 L 208.835938 107.582031 L 203.761719 101.902344 L 190.890625 101.902344 L 185.914062 107.472656 L 185.914062 124.601562 L 191.90625 131.3125 C 192.273438 131.191406 192.640625 131.136719 193.035156 131.136719 C 195.121094 131.136719 196.816406 132.839844 196.816406 134.9375 C 196.816406 137.019531 195.121094 138.722656 193.035156 138.722656 C 190.945312 138.722656 189.261719 137.019531 189.261719 134.9375 C 189.261719 134.390625 189.371094 133.886719 189.574219 133.425781 L 185.914062 129.339844 L 185.914062 173.167969 L 193.359375 181.484375 C 193.710938 181.378906 194.089844 181.308594 194.484375 181.308594 C 196.574219 181.308594 198.269531 183.011719 198.269531 185.109375 C 198.269531 187.203125 196.570312 188.894531 194.484375 188.894531 Z M 194.484375 188.894531 " fill-opacity="1" fill-rule="evenodd"/></g><g fill="#ffffff" fill-opacity="1"><g transform="translate(73.169698, 244.808257)"><g><path d="M 19.28125 0 L 12.875 0 L 12.875 -24.59375 C 12.875 -24.84375 12.789062 -25.054688 12.625 -25.234375 C 12.457031 -25.421875 12.25 -25.515625 12 -25.515625 L 9.53125 -25.515625 C 9.28125 -25.515625 9.070312 -25.421875 8.90625 -25.234375 C 8.738281 -25.054688 8.65625 -24.84375 8.65625 -24.59375 L 8.65625 0 L 2.25 0 L 2.25 -24.046875 C 2.25 -28.078125 4.140625 -30.09375 7.921875 -30.09375 L 13.609375 -30.09375 C 17.390625 -30.09375 19.28125 -28.078125 19.28125 -24.046875 Z M 19.28125 0 "/></g></g></g><g fill="#ffffff" fill-opacity="1"><g transform="translate(100.428258, 244.808257)"><g><path d="M 8.703125 -5.3125 L 15.8125 -5.3125 L 15.8125 0 L 2.296875 0 L 2.296875 -29.640625 L 15.8125 -29.640625 L 15.8125 -24.421875 L 8.703125 -24.421875 L 8.703125 -17.453125 L 15.34375 -17.453125 L 15.34375 -12.421875 L 8.703125 -12.421875 Z M 8.703125 -5.3125 "/></g></g></g><g fill="#ffffff" fill-opacity="1"><g transform="translate(123.60972, 244.808257)"><g><path d="M 12.875 -29.640625 L 19.28125 -29.640625 L 19.28125 -5.59375 C 19.28125 -1.5625 17.390625 0.453125 13.609375 0.453125 L 7.921875 0.453125 C 4.140625 0.453125 2.25 -1.5625 2.25 -5.59375 L 2.25 -29.640625 L 8.65625 -29.640625 L 8.65625 -5.046875 C 8.65625 -4.796875 8.738281 -4.578125 8.90625 -4.390625 C 9.070312 -4.210938 9.28125 -4.125 9.53125 -4.125 L 12 -4.125 C 12.25 -4.125 12.457031 -4.210938 12.625 -4.390625 C 12.789062 -4.578125 12.875 -4.796875 12.875 -5.046875 Z M 12.875 -29.640625 "/></g></g></g><g fill="#ffffff" fill-opacity="1"><g transform="translate(150.959897, 244.808257)"><g><path d="M 8.703125 -12.140625 L 8.703125 0 L 2.296875 0 L 2.296875 -29.640625 L 13.703125 -29.640625 C 17.484375 -29.640625 19.375 -27.625 19.375 -23.59375 L 19.375 -20.15625 C 19.375 -17.71875 18.503906 -16.160156 16.765625 -15.484375 C 18.296875 -14.929688 19.0625 -13.679688 19.0625 -11.734375 L 19.0625 0 L 12.640625 0 L 12.640625 -11.21875 C 12.640625 -11.832031 12.351562 -12.140625 11.78125 -12.140625 Z M 8.703125 -25.28125 L 8.703125 -16.625 L 12.09375 -16.625 C 12.34375 -16.625 12.550781 -16.71875 12.71875 -16.90625 C 12.882812 -17.09375 12.96875 -17.304688 12.96875 -17.546875 L 12.96875 -24.375 C 12.96875 -24.613281 12.882812 -24.820312 12.71875 -25 C 12.550781 -25.1875 12.34375 -25.28125 12.09375 -25.28125 Z M 8.703125 -25.28125 "/></g></g></g><g fill="#ffffff" fill-opacity="1"><g transform="translate(178.126828, 244.808257)"><g><path d="M 19.75 -24.046875 L 19.75 -5.59375 C 19.75 -1.5625 17.851562 0.453125 14.0625 0.453125 L 7.96875 0.453125 C 4.1875 0.453125 2.296875 -1.5625 2.296875 -5.59375 L 2.296875 -24.046875 C 2.296875 -28.078125 4.1875 -30.09375 7.96875 -30.09375 L 14.0625 -30.09375 C 17.851562 -30.09375 19.75 -28.078125 19.75 -24.046875 Z M 13.328125 -4.859375 L 13.328125 -24.828125 C 13.328125 -25.078125 13.242188 -25.289062 13.078125 -25.46875 C 12.910156 -25.65625 12.707031 -25.75 12.46875 -25.75 L 9.578125 -25.75 C 9.328125 -25.75 9.117188 -25.65625 8.953125 -25.46875 C 8.785156 -25.289062 8.703125 -25.078125 8.703125 -24.828125 L 8.703125 -4.859375 C 8.703125 -4.609375 8.785156 -4.390625 8.953125 -4.203125 C 9.117188 -4.023438 9.328125 -3.9375 9.578125 -3.9375 L 12.46875 -3.9375 C 12.707031 -3.9375 12.910156 -4.023438 13.078125 -4.203125 C 13.242188 -4.390625 13.328125 -4.609375 13.328125 -4.859375 Z M 13.328125 -4.859375 "/></g></g></g><g fill="#ffffff" fill-opacity="1"><g transform="translate(206.255775, 244.808257)"><g><path d="M 0.59375 -24.1875 L 0.59375 -29.640625 L 16.625 -29.640625 L 16.625 -24.1875 L 11.8125 -24.1875 L 11.8125 0 L 5.40625 0 L 5.40625 -24.1875 Z M 0.59375 -24.1875 "/></g></g></g><g fill="#ffffff" fill-opacity="1"><g transform="translate(229.483046, 244.808257)"><g><path d="M 8.703125 -5.3125 L 15.8125 -5.3125 L 15.8125 0 L 2.296875 0 L 2.296875 -29.640625 L 15.8125 -29.640625 L 15.8125 -24.421875 L 8.703125 -24.421875 L 8.703125 -17.453125 L 15.34375 -17.453125 L 15.34375 -12.421875 L 8.703125 -12.421875 Z M 8.703125 -5.3125 "/></g></g></g><g fill="#ffffff" fill-opacity="1"><g transform="translate(252.664501, 244.808257)"><g><path d="M 8.65625 0 L 2.25 0 L 2.25 -24.046875 C 2.25 -28.078125 4.140625 -30.09375 7.921875 -30.09375 L 11.3125 -30.09375 C 13.539062 -30.09375 15.128906 -29.363281 16.078125 -27.90625 C 16.960938 -29.363281 18.550781 -30.09375 20.84375 -30.09375 L 24.234375 -30.09375 C 28.023438 -30.09375 29.921875 -28.078125 29.921875 -24.046875 L 29.921875 0 L 23.5 0 L 23.5 -24.59375 C 23.5 -24.84375 23.414062 -25.054688 23.25 -25.234375 C 23.082031 -25.421875 22.875 -25.515625 22.625 -25.515625 L 20.15625 -25.515625 C 19.914062 -25.515625 19.707031 -25.421875 19.53125 -25.234375 C 19.363281 -25.054688 19.28125 -24.84375 19.28125 -24.59375 L 19.28125 0 L 12.875 0 L 12.875 -24.59375 C 12.875 -24.84375 12.789062 -25.054688 12.625 -25.234375 C 12.457031 -25.421875 12.25 -25.515625 12 -25.515625 L 9.53125 -25.515625 C 9.28125 -25.515625 9.070312 -25.421875 8.90625 -25.234375 C 8.738281 -25.054688 8.65625 -24.84375 8.65625 -24.59375 Z M 8.65625 0 "/></g></g></g><g fill="#ffffff" fill-opacity="1"><g transform="translate(290.642615, 244.808257)"><g><path d="M 8.703125 -29.640625 L 8.703125 0 L 2.296875 0 L 2.296875 -29.640625 Z M 8.703125 -29.640625 "/></g></g></g></svg>